PathFileType	4	(X/Y/Z)	D:\TRACE\spot_10-12-23\spot_arm_motion_3_3-platform.trc
DataRate	CameraRate	NumFrames	NumMarkers	Units	OrigDataRate	OrigDataStartFrame	OrigNumFrames
100.00	100.00	      30	5	mm	100.00	6126	      7000
Frame#	Time	Left_Front			Right_Front			Left_Aft			Right_Aft			Post			
		X1	Y1	Z1	X2	Y2	Z2	X3	Y3	Z3	X4	Y4	Z4	X5	Y5	Z5	

6126	61.250	-775.91107	42.62896	-631.81964	796.76398	47.10979	-624.99023	-692.62152	-20.08041	504.53561	724.58752	-20.09343	590.38025	6.57729	796.73145	-909.15973	
6127	61.260	-776.06818	42.68859	-631.75067	796.52362	47.21754	-625.03284	-692.82562	-20.06263	504.53806	724.43182	-20.11749	590.34869	6.40732	797.00104	-908.97754	
6128	61.270	-776.26477	42.69978	-631.72095	796.42761	47.23553	-624.99957	-693.02515	-20.13265	504.54419	724.30042	-20.12387	590.36670	6.24531	796.84570	-909.12939	
6129	61.280	-776.44061	42.74514	-631.68524	796.29187	47.27014	-624.95776	-692.89880	-20.42755	504.58936	724.15021	-20.16427	590.35480	6.14094	796.91296	-909.09167	
6130	61.290	-776.54761	42.77207	-631.61432	796.10437	47.33310	-624.91797	-693.23755	-20.28277	504.44617	724.00476	-20.18214	590.34863	6.05817	796.99670	-909.06915	
6131	61.300	-776.65668	42.82718	-631.59979	795.97583	47.34249	-624.86169	-693.28992	-20.41712	504.70154	723.90271	-20.17933	590.33167	6.02463	796.99164	-909.06610	
6132	61.310	-776.81964	42.88165	-631.58466	795.81934	47.33718	-624.83984	-693.40393	-20.41455	504.71710	723.78192	-20.14557	590.36383	5.96287	797.01270	-908.99634	
6133	61.320	-777.00806	42.85753	-631.62463	795.60626	47.33810	-624.83582	-693.68390	-20.33119	504.50909	723.61829	-20.17248	590.33966	5.82846	797.02979	-908.91028	
6134	61.330	-777.16345	42.84756	-631.66998	795.37256	47.30474	-624.84100	-693.79303	-20.37407	504.73651	723.43738	-20.21171	590.33368	5.67876	796.98431	-908.83154	
6135	61.340	-777.38586	42.88562	-631.68915	795.18903	47.27473	-624.83502	-693.98236	-20.34666	504.77170	723.33160	-20.16102	590.32440	5.56362	796.89258	-908.76807	
6136	61.350	-777.51251	42.81741	-631.71466	794.98248	47.27915	-624.87561	-694.11951	-20.32833	504.75305	723.17688	-20.11087	590.34375	5.44554	796.91083	-908.72882	
6137	61.360	-777.76794	42.82023	-631.75684	794.82404	47.28896	-624.88501	-694.34918	-20.17792	504.51648	722.97369	-20.11946	590.33051	5.31779	796.84137	-908.70679	
6138	61.370	-777.97900	42.70913	-631.75305	794.69434	47.27637	-624.90198	-694.65558	-20.11751	504.50931	722.78973	-20.14113	590.36035	5.08959	796.79492	-908.69995	
6139	61.380	-778.16132	42.67020	-631.76416	794.55060	47.26468	-624.94989	-694.87701	-20.13026	504.49319	722.58820	-20.18056	590.38513	5.00534	796.77448	-908.78015	
6140	61.390	-778.29950	42.68390	-631.76617	794.45819	47.26207	-624.90967	-695.16663	-20.11708	504.45294	722.26929	-20.21638	590.34998	4.73195	796.95966	-908.76233	
6141	61.400	-778.44214	42.71559	-631.75763	794.28876	47.29663	-624.90448	-695.29987	-20.17805	504.41794	722.05658	-20.20980	590.33136	4.47414	796.79510	-909.07617	
6142	61.410	-778.60425	42.72337	-631.73688	794.03284	47.29844	-624.87671	-695.51318	-20.17211	504.45288	721.84216	-20.20289	590.34363	4.10976	796.81903	-909.23962	
6143	61.420	-778.76031	42.67623	-631.71082	793.80676	47.28131	-624.89404	-695.63397	-20.17863	504.42709	721.66803	-20.20606	590.35590	3.82636	796.82330	-909.35706	
6144	61.430	-778.95026	42.60878	-631.72284	793.55389	47.26468	-624.99567	-695.81274	-20.19026	504.37637	721.39630	-20.17015	590.33496	3.65715	796.80310	-909.38403	
6145	61.440	-779.08765	42.52092	-631.76984	793.43414	47.22583	-624.97498	-695.89349	-20.07009	504.42755	721.11658	-20.09314	590.34937	3.46450	796.78796	-909.34265	
6146	61.450	-779.45178	42.54842	-631.86011	793.28796	47.21062	-624.95435	-696.11322	-19.96791	504.42697	720.83307	-19.97480	590.33496	3.11529	796.73779	-909.24402	
6147	61.460	-779.67487	42.51157	-631.94092	793.07452	47.17550	-624.87909	-696.33630	-19.91072	504.39059	720.64362	-19.89389	590.32751	2.93026	796.63873	-909.13806	
6148	61.470	-779.80597	42.30575	-631.88049	792.79822	47.08830	-624.91815	-696.55255	-19.85596	504.52451	720.50134	-19.81033	590.32623	2.71538	796.53162	-909.20172	
6149	61.480	-779.98181	42.10501	-631.83472	792.57300	46.88392	-625.02588	-696.79895	-19.77766	504.53162	720.35724	-19.74177	590.29614	2.46150	796.30658	-909.30322	
6150	61.490	-780.20850	42.02288	-631.86523	792.28259	46.63924	-625.13361	-697.01843	-19.74981	504.51227	720.26324	-19.66985	590.30371	2.28318	796.10162	-909.37848	
6151	61.500	-780.33240	41.90145	-631.98413	791.95282	46.38507	-625.27924	-697.18640	-19.71795	504.47473	720.14618	-19.60724	590.26819	2.23418	795.83020	-909.56146	
6152	61.510	-780.64807	41.91098	-631.96277	791.85779	46.29472	-625.32776	-697.36371	-19.69040	504.39746	719.91785	-19.50038	590.27832	2.13584	795.62488	-909.79242	
6153	61.520	-780.93121	41.91883	-632.03308	791.73871	46.27237	-625.36151	-697.58600	-19.68276	504.43732	719.74097	-19.42925	590.25745	2.00308	795.53979	-910.02094	
6154	61.530	-781.21735	41.91724	-632.07660	791.58411	46.24557	-625.35913	-697.78186	-19.62390	504.39719	719.47571	-19.36150	590.21832	1.68545	795.32953	-910.51416	
6155	61.540	-781.47217	41.88075	-632.04108	791.31744	46.13080	-625.34479	-697.97717	-19.53494	504.38815	719.17914	-19.24002	590.19061	1.39889	795.17322	-910.87939	
